<svg width="148" height="37" viewBox="0 0 148 37" fill="none" xmlns="http://www.w3.org/2000/svg">
<path d="M47.04 25.1162C46.9067 25.1162 46.7933 25.0695 46.7 24.9762C46.6067 24.8829 46.56 24.7695 46.56 24.6362V11.5962C46.56 11.4629 46.6067 11.3495 46.7 11.2562C46.7933 11.1629 46.9067 11.1162 47.04 11.1162H48.9C49.0333 11.1162 49.1467 11.1629 49.24 11.2562C49.3333 11.3495 49.38 11.4629 49.38 11.5962V22.7362H55.72C55.8667 22.7362 55.9867 22.7829 56.08 22.8762C56.1733 22.9695 56.22 23.0895 56.22 23.2362V24.6362C56.22 24.7695 56.1733 24.8829 56.08 24.9762C55.9867 25.0695 55.8667 25.1162 55.72 25.1162H47.04ZM60.9416 25.3162C60.2482 25.3162 59.6216 25.1829 59.0616 24.9162C58.5016 24.6362 58.0549 24.2695 57.7216 23.8162C57.4016 23.3495 57.2416 22.8295 57.2416 22.2562C57.2416 21.3229 57.6149 20.5829 58.3616 20.0362C59.1216 19.4762 60.1216 19.1029 61.3616 18.9162L64.1016 18.5162V18.0962C64.1016 17.5362 63.9616 17.1029 63.6816 16.7962C63.4016 16.4895 62.9216 16.3362 62.2416 16.3362C61.7616 16.3362 61.3682 16.4362 61.0616 16.6362C60.7682 16.8229 60.5482 17.0762 60.4016 17.3962C60.2949 17.5695 60.1416 17.6562 59.9416 17.6562H58.3616C58.2149 17.6562 58.1016 17.6162 58.0216 17.5362C57.9549 17.4562 57.9216 17.3495 57.9216 17.2162C57.9349 17.0029 58.0216 16.7429 58.1816 16.4362C58.3416 16.1295 58.5949 15.8362 58.9416 15.5562C59.2882 15.2629 59.7349 15.0162 60.2816 14.8162C60.8282 14.6162 61.4882 14.5162 62.2616 14.5162C63.1016 14.5162 63.8082 14.6229 64.3816 14.8362C64.9682 15.0362 65.4349 15.3095 65.7816 15.6562C66.1282 16.0029 66.3816 16.4095 66.5416 16.8762C66.7016 17.3429 66.7816 17.8362 66.7816 18.3562V24.6362C66.7816 24.7695 66.7349 24.8829 66.6416 24.9762C66.5482 25.0695 66.4349 25.1162 66.3016 25.1162H64.6816C64.5349 25.1162 64.4149 25.0695 64.3216 24.9762C64.2416 24.8829 64.2016 24.7695 64.2016 24.6362V23.8562C64.0282 24.1095 63.7949 24.3495 63.5016 24.5762C63.2082 24.7895 62.8482 24.9695 62.4216 25.1162C62.0082 25.2495 61.5149 25.3162 60.9416 25.3162ZM61.6216 23.4162C62.0882 23.4162 62.5082 23.3162 62.8816 23.1162C63.2682 22.9162 63.5682 22.6095 63.7816 22.1962C64.0082 21.7695 64.1216 21.2362 64.1216 20.5962V20.1762L62.1216 20.4962C61.3349 20.6162 60.7482 20.8095 60.3616 21.0762C59.9749 21.3429 59.7816 21.6695 59.7816 22.0562C59.7816 22.3495 59.8682 22.6029 60.0416 22.8162C60.2282 23.0162 60.4616 23.1695 60.7416 23.2762C61.0216 23.3695 61.3149 23.4162 61.6216 23.4162ZM73.2873 25.3162C72.4873 25.3162 71.8007 25.2229 71.2273 25.0362C70.6673 24.8495 70.2073 24.6162 69.8473 24.3362C69.4873 24.0562 69.2207 23.7762 69.0473 23.4962C68.874 23.2162 68.7807 22.9829 68.7673 22.7962C68.754 22.6495 68.794 22.5362 68.8873 22.4562C68.994 22.3629 69.1073 22.3162 69.2273 22.3162H70.8073C70.8607 22.3162 70.9073 22.3229 70.9473 22.3362C70.9873 22.3495 71.0407 22.3895 71.1073 22.4562C71.2807 22.6029 71.4607 22.7562 71.6473 22.9162C71.8473 23.0762 72.0807 23.2162 72.3473 23.3362C72.614 23.4429 72.9473 23.4962 73.3473 23.4962C73.8673 23.4962 74.3007 23.3962 74.6473 23.1962C75.0073 22.9829 75.1873 22.6829 75.1873 22.2962C75.1873 22.0162 75.1073 21.7895 74.9473 21.6162C74.8007 21.4429 74.5207 21.2895 74.1073 21.1562C73.694 21.0095 73.1073 20.8562 72.3473 20.6962C71.6007 20.5229 70.9807 20.3029 70.4873 20.0362C69.994 19.7695 69.6273 19.4362 69.3873 19.0362C69.1473 18.6362 69.0273 18.1695 69.0273 17.6362C69.0273 17.1162 69.1807 16.6229 69.4873 16.1562C69.8073 15.6762 70.274 15.2829 70.8873 14.9762C71.514 14.6695 72.2873 14.5162 73.2073 14.5162C73.9273 14.5162 74.554 14.6095 75.0873 14.7962C75.6207 14.9695 76.0607 15.1895 76.4073 15.4562C76.7673 15.7229 77.0407 15.9962 77.2273 16.2762C77.414 16.5429 77.514 16.7762 77.5273 16.9762C77.5407 17.1229 77.5007 17.2429 77.4073 17.3362C77.314 17.4162 77.2073 17.4562 77.0873 17.4562H75.6073C75.5407 17.4562 75.4807 17.4429 75.4273 17.4162C75.374 17.3895 75.3207 17.3562 75.2673 17.3162C75.1207 17.1829 74.9607 17.0429 74.7873 16.8962C74.614 16.7495 74.4007 16.6229 74.1473 16.5162C73.9073 16.3962 73.5873 16.3362 73.1873 16.3362C72.6807 16.3362 72.294 16.4495 72.0273 16.6762C71.7607 16.8895 71.6273 17.1629 71.6273 17.4962C71.6273 17.7229 71.6873 17.9229 71.8073 18.0962C71.9407 18.2562 72.2007 18.4095 72.5873 18.5562C72.974 18.7029 73.5607 18.8562 74.3473 19.0162C75.2407 19.1762 75.9473 19.4162 76.4673 19.7362C77.0007 20.0429 77.374 20.4029 77.5873 20.8162C77.814 21.2162 77.9273 21.6629 77.9273 22.1562C77.9273 22.7562 77.7473 23.2962 77.3873 23.7762C77.0407 24.2562 76.5207 24.6362 75.8273 24.9162C75.1473 25.1829 74.3007 25.3162 73.2873 25.3162ZM80.4919 25.1162C80.3585 25.1162 80.2452 25.0695 80.1519 24.9762C80.0585 24.8829 80.0119 24.7695 80.0119 24.6362V11.3962C80.0119 11.2629 80.0585 11.1495 80.1519 11.0562C80.2452 10.9629 80.3585 10.9162 80.4919 10.9162H82.1519C82.2852 10.9162 82.3985 10.9629 82.4919 11.0562C82.5852 11.1495 82.6319 11.2629 82.6319 11.3962V24.6362C82.6319 24.7695 82.5852 24.8829 82.4919 24.9762C82.3985 25.0695 82.2852 25.1162 82.1519 25.1162H80.4919ZM89.7648 25.3162C88.2848 25.3162 87.1115 24.8895 86.2448 24.0362C85.3782 23.1829 84.9115 21.9695 84.8448 20.3962C84.8315 20.2629 84.8248 20.0962 84.8248 19.8962C84.8248 19.6829 84.8315 19.5162 84.8448 19.3962C84.8982 18.3962 85.1248 17.5295 85.5248 16.7962C85.9382 16.0629 86.5048 15.5029 87.2248 15.1162C87.9448 14.7162 88.7915 14.5162 89.7648 14.5162C90.8448 14.5162 91.7515 14.7429 92.4848 15.1962C93.2182 15.6362 93.7715 16.2562 94.1448 17.0562C94.5182 17.8429 94.7048 18.7562 94.7048 19.7962V20.2162C94.7048 20.3495 94.6582 20.4629 94.5648 20.5562C94.4715 20.6495 94.3515 20.6962 94.2048 20.6962H87.5648C87.5648 20.6962 87.5648 20.7162 87.5648 20.7562C87.5648 20.7962 87.5648 20.8295 87.5648 20.8562C87.5782 21.3229 87.6648 21.7562 87.8248 22.1562C87.9982 22.5429 88.2448 22.8562 88.5648 23.0962C88.8982 23.3362 89.2915 23.4562 89.7448 23.4562C90.1182 23.4562 90.4315 23.4029 90.6848 23.2962C90.9382 23.1762 91.1448 23.0429 91.3048 22.8962C91.4648 22.7495 91.5782 22.6295 91.6448 22.5362C91.7648 22.3762 91.8582 22.2829 91.9248 22.2562C92.0048 22.2162 92.1182 22.1962 92.2648 22.1962H93.9848C94.1182 22.1962 94.2248 22.2362 94.3048 22.3162C94.3982 22.3962 94.4382 22.4962 94.4248 22.6162C94.4115 22.8295 94.2982 23.0895 94.0848 23.3962C93.8848 23.7029 93.5915 24.0029 93.2048 24.2962C92.8182 24.5895 92.3315 24.8362 91.7448 25.0362C91.1715 25.2229 90.5115 25.3162 89.7648 25.3162ZM87.5648 19.0162H91.9848V18.9562C91.9848 18.4362 91.8982 17.9829 91.7248 17.5962C91.5515 17.2095 91.2982 16.9029 90.9648 16.6762C90.6315 16.4495 90.2315 16.3362 89.7648 16.3362C89.2982 16.3362 88.8982 16.4495 88.5648 16.6762C88.2315 16.9029 87.9782 17.2095 87.8048 17.5962C87.6448 17.9829 87.5648 18.4362 87.5648 18.9562V19.0162ZM100.768 25.3162C99.9678 25.3162 99.2811 25.2229 98.7078 25.0362C98.1478 24.8495 97.6878 24.6162 97.3278 24.3362C96.9678 24.0562 96.7011 23.7762 96.5278 23.4962C96.3545 23.2162 96.2611 22.9829 96.2478 22.7962C96.2345 22.6495 96.2745 22.5362 96.3678 22.4562C96.4745 22.3629 96.5878 22.3162 96.7078 22.3162H98.2878C98.3411 22.3162 98.3878 22.3229 98.4278 22.3362C98.4678 22.3495 98.5211 22.3895 98.5878 22.4562C98.7611 22.6029 98.9411 22.7562 99.1278 22.9162C99.3278 23.0762 99.5611 23.2162 99.8278 23.3362C100.094 23.4429 100.428 23.4962 100.828 23.4962C101.348 23.4962 101.781 23.3962 102.128 23.1962C102.488 22.9829 102.668 22.6829 102.668 22.2962C102.668 22.0162 102.588 21.7895 102.428 21.6162C102.281 21.4429 102.001 21.2895 101.588 21.1562C101.174 21.0095 100.588 20.8562 99.8278 20.6962C99.0811 20.5229 98.4611 20.3029 97.9678 20.0362C97.4745 19.7695 97.1078 19.4362 96.8678 19.0362C96.6278 18.6362 96.5078 18.1695 96.5078 17.6362C96.5078 17.1162 96.6611 16.6229 96.9678 16.1562C97.2878 15.6762 97.7545 15.2829 98.3678 14.9762C98.9945 14.6695 99.7678 14.5162 100.688 14.5162C101.408 14.5162 102.034 14.6095 102.568 14.7962C103.101 14.9695 103.541 15.1895 103.888 15.4562C104.248 15.7229 104.521 15.9962 104.708 16.2762C104.894 16.5429 104.994 16.7762 105.008 16.9762C105.021 17.1229 104.981 17.2429 104.888 17.3362C104.794 17.4162 104.688 17.4562 104.568 17.4562H103.088C103.021 17.4562 102.961 17.4429 102.908 17.4162C102.854 17.3895 102.801 17.3562 102.748 17.3162C102.601 17.1829 102.441 17.0429 102.268 16.8962C102.094 16.7495 101.881 16.6229 101.628 16.5162C101.388 16.3962 101.068 16.3362 100.668 16.3362C100.161 16.3362 99.7745 16.4495 99.5078 16.6762C99.2411 16.8895 99.1078 17.1629 99.1078 17.4962C99.1078 17.7229 99.1678 17.9229 99.2878 18.0962C99.4211 18.2562 99.6811 18.4095 100.068 18.5562C100.454 18.7029 101.041 18.8562 101.828 19.0162C102.721 19.1762 103.428 19.4162 103.948 19.7362C104.481 20.0429 104.854 20.4029 105.068 20.8162C105.294 21.2162 105.408 21.6629 105.408 22.1562C105.408 22.7562 105.228 23.2962 104.868 23.7762C104.521 24.2562 104.001 24.6362 103.308 24.9162C102.628 25.1829 101.781 25.3162 100.768 25.3162ZM111.552 25.1162C111.326 25.1162 111.146 25.0562 111.012 24.9362C110.879 24.8162 110.786 24.6762 110.732 24.5162L106.652 11.7162C106.626 11.6495 106.612 11.5895 106.612 11.5362C106.612 11.4295 106.652 11.3362 106.732 11.2562C106.826 11.1629 106.932 11.1162 107.052 11.1162H109.532C109.746 11.1162 109.912 11.1762 110.032 11.2962C110.152 11.4162 110.226 11.5295 110.252 11.6362L113.072 20.8762L115.912 11.6362C115.952 11.5295 116.026 11.4162 116.132 11.2962C116.252 11.1762 116.419 11.1162 116.632 11.1162H119.112C119.232 11.1162 119.332 11.1629 119.412 11.2562C119.506 11.3362 119.552 11.4295 119.552 11.5362C119.552 11.5895 119.539 11.6495 119.512 11.7162L115.432 24.5162C115.379 24.6762 115.286 24.8162 115.152 24.9362C115.032 25.0562 114.852 25.1162 114.612 25.1162H111.552ZM121.92 25.1162C121.773 25.1162 121.653 25.0695 121.56 24.9762C121.466 24.8829 121.42 24.7629 121.42 24.6162V11.6162C121.42 11.4695 121.466 11.3495 121.56 11.2562C121.653 11.1629 121.773 11.1162 121.92 11.1162H127.52C128.626 11.1162 129.586 11.2895 130.4 11.6362C131.226 11.9695 131.866 12.4762 132.32 13.1562C132.786 13.8362 133.02 14.6962 133.02 15.7362C133.02 16.7629 132.786 17.6095 132.32 18.2762C131.866 18.9429 131.226 19.4362 130.4 19.7562C129.586 20.0762 128.626 20.2362 127.52 20.2362H125.14V24.6162C125.14 24.7629 125.086 24.8829 124.98 24.9762C124.886 25.0695 124.766 25.1162 124.62 25.1162H121.92ZM125.08 17.4762H127.42C127.993 17.4762 128.446 17.3295 128.78 17.0362C129.126 16.7429 129.3 16.2962 129.3 15.6962C129.3 15.1895 129.153 14.7629 128.86 14.4162C128.566 14.0695 128.086 13.8962 127.42 13.8962H125.08V17.4762ZM135.435 25.1162C135.288 25.1162 135.168 25.0695 135.075 24.9762C134.982 24.8829 134.935 24.7629 134.935 24.6162V11.6162C134.935 11.4695 134.982 11.3495 135.075 11.2562C135.168 11.1629 135.288 11.1162 135.435 11.1162H137.555C137.782 11.1162 137.942 11.1695 138.035 11.2762C138.142 11.3695 138.208 11.4429 138.235 11.4962L143.115 19.1962V11.6162C143.115 11.4695 143.162 11.3495 143.255 11.2562C143.348 11.1629 143.468 11.1162 143.615 11.1162H146.015C146.162 11.1162 146.282 11.1629 146.375 11.2562C146.468 11.3495 146.515 11.4695 146.515 11.6162V24.6162C146.515 24.7495 146.468 24.8695 146.375 24.9762C146.282 25.0695 146.162 25.1162 146.015 25.1162H143.875C143.662 25.1162 143.502 25.0629 143.395 24.9562C143.302 24.8495 143.242 24.7762 143.215 24.7362L138.335 17.3362V24.6162C138.335 24.7629 138.288 24.8829 138.195 24.9762C138.102 25.0695 137.982 25.1162 137.835 25.1162H135.435Z" fill="#0B132A"/>
<path d="M31.1473 13.6477L31.1255 13.626C31.1238 13.6247 31.1224 13.6231 31.1215 13.6212L17.5006 0L3.87983 13.6209C3.87826 13.6225 3.8758 13.6256 3.8758 13.6256L3.85333 13.6474C1.77053 15.7419 0.447586 18.4725 0.0948177 21.4052C-0.25795 24.3379 0.379698 27.3044 1.90639 29.8331C3.43309 32.3619 5.76122 34.3077 8.52069 35.3612C11.2802 36.4147 14.3126 36.5157 17.136 35.6477C17.3735 35.5751 17.6275 35.5751 17.8651 35.6477C20.6882 36.5153 23.7205 36.4144 26.4798 35.3607C29.2391 34.307 31.567 32.3613 33.0936 29.8328C34.6202 27.3042 35.2579 24.3379 34.9053 21.4054C34.5526 18.4728 33.2299 15.7422 31.1473 13.6477ZM8.7232 22.6298C8.65689 22.6961 8.6043 22.7749 8.56844 22.8615C8.53257 22.948 8.5141 23.0408 8.51412 23.1346C8.53835 25.5386 9.21776 27.8904 10.4792 29.9371C10.5079 29.9835 10.5211 30.0379 10.517 30.0922C10.513 30.1465 10.4918 30.1982 10.4566 30.2399C10.4213 30.2816 10.3738 30.311 10.3209 30.324C10.2679 30.337 10.2122 30.333 10.1616 30.3124C9.21332 29.9135 8.35182 29.3336 7.62531 28.6053C6.13646 27.1162 5.29946 25.097 5.2981 22.9912C5.29675 20.8855 6.13117 18.8652 7.61812 17.3743L17.5006 7.49273L27.3826 17.3743C28.8698 18.865 29.7045 20.8853 29.703 22.9912C29.7018 25.097 28.8647 27.1162 27.3757 28.6053C26.6492 29.3336 25.7877 29.9135 24.8396 30.3124C24.7889 30.333 24.7332 30.337 24.6802 30.324C24.6273 30.311 24.5798 30.2814 24.5445 30.2399C24.5093 30.1982 24.488 30.1465 24.484 30.092C24.4799 30.0377 24.4931 29.9833 24.5218 29.9369C25.7835 27.8904 26.4633 25.5386 26.4879 23.1346C26.4879 23.0408 26.4692 22.948 26.4332 22.8613C26.3971 22.7746 26.3444 22.696 26.2779 22.6296L21.6037 17.6717C21.5571 17.6329 21.4985 17.6116 21.4378 17.6116C21.3773 17.6116 21.3186 17.6329 21.2721 17.6717C21.2255 17.7104 21.1942 17.7644 21.1833 17.824C21.1724 17.8837 21.1828 17.945 21.2127 17.9978C23.0281 21.283 21.467 26.0017 18.8637 28.6053L18.85 28.6191C18.4907 28.9745 18.0056 29.1738 17.5002 29.1736C16.9948 29.1734 16.5098 28.9738 16.1508 28.6182L16.1382 28.6053C13.5339 26.0017 11.9736 21.2835 13.7893 17.9985C13.8192 17.9457 13.8296 17.8844 13.8187 17.8247C13.8079 17.7651 13.7764 17.7111 13.7299 17.6724C13.6834 17.6336 13.6247 17.6123 13.5642 17.6123C13.5036 17.6123 13.4449 17.6336 13.3984 17.6724L8.7232 22.6298Z" fill="#F53838"/>
</svg>
